<svg xmlns="http://www.w3.org/2000/svg" viewBox="0 0 28 28" fill="none">
  <g clip-path="url(#clip0_41_123)">
    <path fill-rule="evenodd" clip-rule="evenodd" d="M18.1734 7.86409H25.2966V5.82424H18.1734V7.86409ZM21.6846 11.9609C20.0956 11.9609 18.8888 12.9453 18.7726 14.7643H24.4734C24.087 12.6055 23.128 11.9609 21.6846 11.9609ZM21.9072 20.3978C23.3744 20.3978 24.451 19.471 24.6708 18.6902H27.7564C26.8744 21.5141 25.053 23.1 21.7826 23.1C17.6092 23.1 15.267 20.1317 15.267 16.193C15.267 6.91731 28.651 6.58475 27.979 17.0591H18.7726C18.8622 19.1861 19.74 20.3978 21.9072 20.3978ZM8.022 19.9897C9.7062 19.9897 10.885 19.3418 10.885 17.5937C10.885 15.7805 9.8434 14.994 8.0948 14.994H3.8752V19.9897H8.022ZM7.7994 12.2671C9.2008 12.2671 10.1682 11.6148 10.1682 10.0994C10.1682 8.50313 9.0426 8.01038 7.504 8.01038H3.8752V12.2671H7.7994ZM8.2936 4.90002C11.613 4.90002 13.9202 5.9972 13.9202 9.41106C13.9202 11.1014 13.2412 12.361 11.5262 13.2098C13.7214 13.8619 14.7602 15.5742 14.7602 17.824C14.7602 21.3955 11.928 23.1 8.54 23.1H0V4.90002H8.2936Z" fill="black"/>
  </g>
  <defs>
    <clipPath id="clip0_41_123">
      <rect width="28" height="28" fill="white"/>
    </clipPath>
  </defs>
</svg>
