<svg xmlns="http://www.w3.org/2000/svg" viewBox="0 0 24 24" fill="none">
  <path d="M15.744 15.1222C14.6107 15.048 13.7197 14.1105 13.7197 12.9645C13.7197 12.9262 13.7205 12.888 13.7227 12.8497V12.855C13.7205 12.819 13.719 12.777 13.719 12.7342C13.719 11.5905 14.6115 10.656 15.738 10.5877H15.744C16.8757 10.6492 17.7697 11.5815 17.7697 12.723C17.7697 12.7695 17.7682 12.8152 17.7652 12.861V12.855C17.7675 12.8925 17.769 12.9367 17.769 12.981C17.769 14.1232 16.8757 15.057 15.7492 15.1215H15.7432L15.744 15.1222ZM8.26947 15.1222C7.13622 15.048 6.24522 14.1105 6.24522 12.9645C6.24522 12.9262 6.24597 12.888 6.24822 12.8497V12.855C6.24597 12.819 6.24447 12.777 6.24447 12.7342C6.24447 11.5905 7.13697 10.656 8.26347 10.5877H8.26947C9.40122 10.6492 10.2952 11.5815 10.2952 12.723C10.2952 12.7695 10.2937 12.8152 10.2907 12.861V12.855C10.293 12.891 10.2945 12.933 10.2945 12.9757C10.2945 14.1195 9.40197 15.054 8.27547 15.1222H8.26947ZM19.7947 4.84874C18.4725 4.22474 16.9365 3.73124 15.3285 3.44549L15.2167 3.42899C15.213 3.42824 15.2085 3.42749 15.204 3.42749C15.1777 3.42749 15.1552 3.44174 15.1432 3.46274C14.9677 3.77099 14.7772 4.15574 14.6055 4.55024L14.5732 4.63349C13.8007 4.50974 12.9097 4.43924 12.0022 4.43924C11.0947 4.43924 10.2037 4.50974 9.33447 4.64549L9.43122 4.63274C9.22872 4.16024 9.03522 3.77624 8.82147 3.40424L8.85222 3.46199C8.83947 3.44024 8.81622 3.42674 8.78997 3.42674C8.78622 3.42674 8.78172 3.42674 8.77797 3.42749C7.05822 3.72974 5.52222 4.22249 4.08672 4.89524L4.19997 4.84724C4.18722 4.85249 4.17672 4.86149 4.16997 4.87274C2.02947 7.90349 0.748474 11.6745 0.748474 15.7447C0.748474 16.425 0.784474 17.0962 0.854224 17.7577L0.847474 17.6752C0.849724 17.697 0.860974 17.715 0.876724 17.7277C2.48172 18.9285 4.34772 19.896 6.36147 20.5312L6.49347 20.5672C6.49947 20.5695 6.50697 20.5702 6.51447 20.5702C6.53847 20.5702 6.55947 20.559 6.57222 20.5417C6.97347 20.0017 7.35522 19.3897 7.68597 18.7477L7.72122 18.6727C7.72572 18.6637 7.72872 18.6525 7.72872 18.6405C7.72872 18.6097 7.70922 18.5842 7.68222 18.5737H7.68147C6.99747 18.3097 6.41922 18.0285 5.86872 17.706L5.92647 17.7375C5.90472 17.7247 5.89047 17.7015 5.89047 17.6752C5.89047 17.652 5.90172 17.631 5.91897 17.6182C6.03672 17.5297 6.15522 17.4382 6.26772 17.3452C6.27972 17.3355 6.29547 17.3295 6.31197 17.3295C6.32247 17.3295 6.33222 17.3317 6.34047 17.3355H6.33972C7.99572 18.1312 9.93972 18.5962 11.9917 18.5962C14.0437 18.5962 15.9885 18.1312 17.724 17.301L17.6437 17.3355C17.6527 17.331 17.6625 17.3287 17.6737 17.3287C17.6902 17.3287 17.706 17.3347 17.718 17.3445C17.8305 17.4375 17.9482 17.5305 18.0675 17.6182C18.0847 17.6317 18.096 17.6527 18.096 17.676C18.096 17.7022 18.0817 17.7247 18.0615 17.7375C17.5657 18.0337 16.9875 18.3142 16.3852 18.546L16.3065 18.573C16.2795 18.5835 16.26 18.6097 16.26 18.6397C16.26 18.6517 16.263 18.663 16.2682 18.6727C16.644 19.3927 17.025 20.0032 17.4465 20.583L17.4165 20.5402C17.4292 20.5582 17.451 20.5702 17.4742 20.5702C17.4817 20.5702 17.4892 20.5687 17.496 20.5672C19.6447 19.8982 21.5137 18.9307 23.1697 17.6932L23.121 17.7285C23.1375 17.7165 23.148 17.6977 23.1502 17.6767C23.2155 17.0887 23.2522 16.4062 23.2522 15.7155C23.2522 11.6542 21.9682 7.89299 19.785 4.81499L19.824 4.87349C19.818 4.86149 19.8075 4.85174 19.7955 4.84649L19.7947 4.84874Z" fill="#241E28"/>
</svg>
