<svg xmlns="http://www.w3.org/2000/svg" viewBox="0 0 24 24" fill="none">
  <g clip-path="url(#clip0_16_91)">
    <path d="M19.3537 5.99699V5.99774C19.3537 6.74324 18.7492 7.34699 18.0045 7.34699C17.2597 7.34699 16.6552 6.74249 16.6552 5.99774C16.6552 5.25224 17.2597 4.64849 18.0045 4.64849C18.7492 4.64924 19.353 5.25224 19.3537 5.99699ZM12 15.7492C9.92924 15.7492 8.25074 14.0707 8.25074 12C8.25074 9.92924 9.92924 8.25074 12 8.25074C14.0707 8.25074 15.7492 9.92924 15.7492 12C15.7492 14.07 14.0715 15.7485 12.0015 15.7485H12.0007L12 15.7492ZM12 6.22499C8.81024 6.22499 6.22499 8.81099 6.22499 12C6.22499 15.189 8.81099 17.775 12 17.775C15.1897 17.775 17.775 15.189 17.775 12C17.775 12 17.775 12 17.775 11.9992C17.775 8.81024 15.1897 6.22424 12 6.22424C12 6.22424 12 6.22424 11.9992 6.22424L12 6.22499ZM12 2.77799C15.0022 2.77799 15.36 2.79299 16.5457 2.84474C17.298 2.85374 18.0135 2.99624 18.6757 3.24824L18.633 3.23399C19.6185 3.61799 20.3835 4.38299 20.7592 5.34299L20.7682 5.36849C21.0052 5.98799 21.1462 6.70424 21.1552 7.45199V7.45574C21.2085 8.64224 21.2205 8.99849 21.2205 12.0015C21.2205 15.0045 21.2062 15.3615 21.1515 16.5472C21.1372 17.3002 20.994 18.0157 20.7427 18.678L20.757 18.6345C20.5635 19.1415 20.277 19.5735 19.9147 19.929L19.914 19.9297C19.5592 20.2927 19.1272 20.5792 18.645 20.7615L18.621 20.7697C17.9992 21.0067 17.2807 21.1477 16.53 21.1567H16.5262C15.3322 21.21 14.9805 21.222 11.9722 21.222C8.96249 21.222 8.61149 21.2077 7.41824 21.153C6.66224 21.1387 5.94374 20.9955 5.27849 20.7442L5.32274 20.7585C4.81574 20.568 4.38374 20.2807 4.03124 19.917L4.03049 19.9162C3.66374 19.5637 3.37574 19.131 3.19499 18.6465L3.18749 18.6232C2.95124 18.0022 2.80799 17.2845 2.79374 16.5345V16.5285C2.75174 15.3472 2.73674 14.9827 2.73674 11.9887C2.73674 8.99324 2.75174 8.62799 2.79374 7.43249C2.80799 6.67724 2.95049 5.95949 3.20174 5.29499L3.18749 5.33924C3.37274 4.82999 3.66149 4.39649 4.02974 4.04624L4.03124 4.04474C4.38224 3.67574 4.81499 3.38849 5.30024 3.21074L5.32349 3.20324C5.94074 2.96474 6.65399 2.82149 7.39949 2.80874H7.40474C8.59949 2.76674 8.95124 2.75249 11.9587 2.75249L12 2.77799ZM12 0.752991C8.94449 0.752991 8.56349 0.767241 7.36349 0.820491C6.37724 0.841491 5.44199 1.03199 4.57649 1.36274L4.63349 1.34399C3.85349 1.64174 3.18899 2.08349 2.64149 2.63999L2.64074 2.64074C2.08199 3.18824 1.64099 3.85349 1.35599 4.59599L1.34324 4.63349C1.03124 5.44199 0.840741 6.37799 0.820491 7.35449V7.36349C0.764241 8.56349 0.752991 8.94449 0.752991 12C0.752991 15.0555 0.767241 15.4365 0.820491 16.6365C0.841491 17.6227 1.03199 18.558 1.36274 19.4235L1.34399 19.3665C1.94099 20.8822 3.11774 22.059 4.59449 22.6425L4.63349 22.656C5.44199 22.9672 6.37799 23.1577 7.35449 23.1787H7.36349C8.56349 23.235 8.94449 23.2462 12 23.2462C15.0555 23.2462 15.4365 23.232 16.6365 23.1787C17.6227 23.157 18.558 22.9672 19.4235 22.6365L19.3665 22.656C20.8822 22.059 22.059 20.8822 22.6425 19.4055L22.656 19.3665C22.968 18.558 23.1577 17.622 23.1787 16.6455V16.6365C23.235 15.4365 23.2462 15.0555 23.2462 12C23.2462 8.94449 23.232 8.56349 23.1787 7.36349C23.157 6.37724 22.9672 5.44199 22.6365 4.57649L22.656 4.63349C22.3575 3.85349 21.9165 3.18899 21.3592 2.64149L21.3585 2.64074C20.811 2.08199 20.1457 1.64099 19.4032 1.35599L19.3657 1.34324C18.5572 1.03124 17.6212 0.840741 16.6447 0.820491H16.6357C15.4357 0.764241 15.0547 0.752991 11.9992 0.752991H12Z" fill="#241E28"/>
  </g>
  <defs>
    <clipPath id="clip0_16_91">
      <rect width="24" height="24" fill="white"/>
    </clipPath>
  </defs>
</svg>
