<svg xmlns="http://www.w3.org/2000/svg" viewBox="0 0 24 24" fill="none">
  <g clip-path="url(#clip0_16_103)">
    <path d="M9.45449 15.7395C9.28574 15.7402 9.14924 15.8767 9.14924 16.0455C9.14924 16.1295 9.18299 16.206 9.23774 16.2615C9.95174 16.7985 10.854 17.121 11.8305 17.121C11.8942 17.121 11.958 17.1195 12.0217 17.1165H12.0127C12.0735 17.1195 12.144 17.121 12.2152 17.121C13.1857 17.121 14.0812 16.7977 14.799 16.2525L14.7885 16.26C14.8462 16.1992 14.8815 16.1175 14.8815 16.0267C14.8815 15.951 14.8567 15.8812 14.8147 15.825L14.8155 15.8257C14.76 15.7702 14.6827 15.7365 14.598 15.7365C14.5132 15.7365 14.4367 15.7702 14.3805 15.8257C13.7812 16.257 13.032 16.515 12.2227 16.515C12.1537 16.515 12.0847 16.5127 12.0165 16.5097L12.0262 16.5105C11.9647 16.5142 11.8927 16.5165 11.8207 16.5165C11.0145 16.5165 10.2682 16.2577 9.66074 15.819L9.67124 15.8265C9.61574 15.7717 9.53999 15.7372 9.45599 15.7372C9.45524 15.7372 9.45449 15.7372 9.45374 15.7372L9.45449 15.7395ZM14.577 12C13.9312 12.0007 13.407 12.5242 13.407 13.1707C13.407 13.8172 13.9312 14.3415 14.5777 14.3415C15.2242 14.3415 15.7485 13.8172 15.7485 13.1707C15.747 12.5242 15.2235 12.0007 14.577 12ZM9.42224 12C10.068 12 10.5922 12.5242 10.5922 13.17C10.5922 13.8157 10.068 14.34 9.42224 14.34C8.77649 14.34 8.25224 13.8157 8.25224 13.17C8.25224 12.5242 8.77574 12 9.42224 12ZM16.6957 5.19974C17.3347 5.20424 17.8507 5.72324 17.8507 6.36299C17.8507 7.00574 17.3302 7.52624 16.6875 7.52624C16.0665 7.52624 15.5587 7.03874 15.5257 6.42599V6.42299L13.092 5.90999L12.342 9.42149C13.9807 9.45824 15.4927 9.97424 16.7505 10.8345L16.7227 10.8165C17.0077 10.5322 17.4015 10.356 17.8365 10.356C17.8425 10.356 17.8492 10.356 17.8552 10.356C18.7627 10.3567 19.4977 11.0925 19.4985 12C19.4932 12.66 19.1137 13.23 18.5617 13.5082L18.552 13.5127C18.5767 13.656 18.591 13.8217 18.591 13.9905C18.591 13.9942 18.591 13.9972 18.591 14.001C18.591 16.5262 15.6577 18.5647 12.027 18.5647C8.39624 18.5647 5.46299 16.5255 5.46299 14.0002C5.46299 13.9995 5.46299 13.998 5.46299 13.9965C5.46299 13.821 5.47799 13.6492 5.50574 13.4812L5.50349 13.4992C4.92524 13.2367 4.52999 12.6637 4.52999 11.9985C4.52999 11.091 5.26574 10.3552 6.17324 10.3552H6.17399C6.61349 10.3597 7.01099 10.5337 7.30574 10.815L7.30499 10.8142C8.54999 9.95324 10.0882 9.43349 11.748 9.42074H11.751L12.5805 5.50124C12.6015 5.42399 12.648 5.35949 12.7102 5.31749L12.7117 5.31674C12.759 5.28899 12.816 5.27249 12.8767 5.27249C12.897 5.27249 12.9172 5.27474 12.9367 5.27774H12.9345L15.6577 5.85599C15.843 5.46449 16.2352 5.19899 16.689 5.19899C16.6912 5.19899 16.6942 5.19899 16.6965 5.19899L16.6957 5.19974ZM12 0.752991C5.78849 0.752991 0.752991 5.78849 0.752991 12C0.752991 18.2115 5.78849 23.247 12 23.247C18.2115 23.247 23.247 18.2115 23.247 12C23.247 8.89424 21.9885 6.08249 19.953 4.04699C17.9175 2.01149 15.1057 0.752991 12 0.752991Z" fill="#241E28"/>
  </g>
  <defs>
    <clipPath id="clip0_16_103">
      <rect width="24" height="24" fill="white"/>
    </clipPath>
  </defs>
</svg>
