<svg viewBox="0 0 24 24" fill="none" xmlns="http://www.w3.org/2000/svg">
<g id="twitter-svgrepo-com">
<path id="Vector" d="M23.1876 5.04608C22.4181 5.39483 21.5249 5.64983 20.5896 5.76683L20.5439 5.77133C21.4949 5.19308 22.2104 4.30733 22.5591 3.25583L22.5689 3.22283C21.7259 3.72308 20.7456 4.10708 19.7039 4.32083L19.6424 4.33133C18.8001 3.43208 17.6046 2.87183 16.2786 2.87183C13.7354 2.87183 11.6736 4.93358 11.6736 7.47683C11.6736 7.84883 11.7179 8.21108 11.8011 8.55758L11.7951 8.52608C7.96038 8.33558 4.58538 6.51608 2.32338 3.75158L2.30463 3.72833C1.91313 4.38308 1.68138 5.17283 1.68138 6.01733C1.68138 6.02708 1.68138 6.03683 1.68138 6.04658V6.04508C1.68138 6.04508 1.68138 6.04733 1.68138 6.04883C1.68138 7.63883 2.48763 9.04058 3.71313 9.86858L3.72963 9.87908C2.96013 9.85358 2.24538 9.64283 1.62138 9.29033L1.64463 9.30233V9.35858V9.36008C1.64463 11.5808 3.21588 13.4356 5.30763 13.8706L5.33763 13.8758C4.97463 13.9771 4.55763 14.0348 4.12713 14.0348C3.82263 14.0348 3.52563 14.0056 3.23763 13.9501L3.26688 13.9546C3.87663 15.7988 5.56788 17.1136 7.57113 17.1526H7.57563C6.02163 18.3811 4.03488 19.1228 1.87413 19.1228C1.87038 19.1228 1.86738 19.1228 1.86363 19.1228H1.86438C1.47813 19.1221 1.09788 19.0996 0.723633 19.0561L0.769383 19.0606C2.76663 20.3573 5.20938 21.1283 7.83288 21.1283C7.83663 21.1283 7.83963 21.1283 7.84338 21.1283H7.84263C7.87038 21.1283 7.90413 21.1283 7.93713 21.1283C15.1206 21.1283 20.9444 15.3046 20.9444 8.12108C20.9444 8.09183 20.9444 8.06333 20.9444 8.03408V8.03858C20.9444 7.84208 20.9444 7.64558 20.9301 7.44908C21.8376 6.79058 22.6019 6.00083 23.2116 5.09708L23.2326 5.06408L23.1876 5.04608Z" fill="white"/>
</g>
</svg>
