<svg xmlns="http://www.w3.org/2000/svg" viewBox="0 0 24 24" fill="none">
  <path d="M9.69899 15.3443V8.6565L15.5782 12.0008L9.69899 15.3443ZM22.776 6.55125C22.5105 5.5755 21.7605 4.821 20.8072 4.554L20.787 4.5495C18.3922 4.245 15.6225 4.071 12.8115 4.071C12.5257 4.071 12.2407 4.0725 11.9565 4.07625L12 4.0755C11.7585 4.0725 11.4742 4.07025 11.1885 4.07025C8.37749 4.07025 5.60624 4.24425 2.88599 4.581L3.21149 4.548C2.23874 4.82025 1.48874 5.574 1.22849 6.53025L1.22399 6.54975C0.923991 8.1315 0.752991 9.95175 0.752991 11.8118C0.752991 11.8778 0.752991 11.9438 0.753741 12.009V11.9985C0.753741 12.054 0.752991 12.12 0.752991 12.186C0.752991 14.046 0.924741 15.8655 1.25249 17.6303L1.22399 17.4473C1.48949 18.423 2.23949 19.1775 3.19274 19.4445L3.21299 19.449C5.60774 19.7535 8.37749 19.9275 11.1885 19.9275C11.4735 19.9275 11.7585 19.926 12.0435 19.9223L12 19.923C12.2415 19.926 12.5265 19.9283 12.8115 19.9283C15.6232 19.9283 18.3937 19.7543 21.114 19.4175L20.7885 19.4505C21.762 19.179 22.512 18.4245 22.773 17.4683L22.7775 17.4488C23.0767 15.867 23.2477 14.0468 23.2477 12.1875C23.2477 12.1215 23.2477 12.0555 23.247 11.9903V12C23.247 11.9445 23.2477 11.8785 23.2477 11.8125C23.2477 9.9525 23.076 8.133 22.7482 6.36825L22.776 6.55125Z" fill="#241E28"/>
</svg>
