<svg xmlns="http://www.w3.org/2000/svg" viewBox="0 0 24 24" fill="none">
  <g clip-path="url(#clip0_16_117)">
    <path d="M9.10999 5.12001C9.42099 5.12001 9.67199 4.86801 9.67199 4.55801C9.67199 4.24801 9.41999 3.99601 9.10999 3.99601C9.10699 3.99601 9.10399 3.99601 9.09999 3.99601C8.94999 3.99601 8.81499 4.06001 8.72099 4.16101C8.62299 4.26401 8.56199 4.40401 8.56199 4.55801C8.56199 4.71201 8.62199 4.85201 8.72099 4.95501C8.81599 5.05701 8.95099 5.12101 9.10099 5.12101H9.11199L9.10999 5.12001ZM15.197 5.12001H15.207C15.357 5.12001 15.492 5.05601 15.586 4.95501C15.684 4.85201 15.745 4.71201 15.745 4.55801C15.745 4.40401 15.685 4.26401 15.586 4.16101C15.491 4.05901 15.356 3.99501 15.206 3.99501C15.202 3.99501 15.199 3.99501 15.195 3.99501H15.196C14.885 3.99501 14.634 4.24701 14.634 4.55701C14.634 4.86701 14.886 5.11901 15.196 5.11901L15.197 5.12001ZM3.48599 7.77401C4.29699 7.77801 4.95399 8.43401 4.95699 9.24501V15.447V15.475C4.95699 15.875 4.79399 16.238 4.53099 16.5C4.27399 16.767 3.91399 16.933 3.51399 16.933C3.50399 16.933 3.49399 16.933 3.48299 16.933H3.48499C3.48299 16.933 3.47999 16.933 3.47699 16.933C2.66099 16.933 1.99899 16.271 1.99899 15.455C1.99899 15.452 1.99899 15.45 1.99899 15.447V9.24501C1.99899 9.23901 1.99899 9.23101 1.99899 9.22401C1.99899 8.82401 2.16499 8.46301 2.43199 8.20501C2.69199 7.93901 3.05499 7.77401 3.45699 7.77401H3.48599ZM18.774 8.04801V17.654V17.683C18.774 18.112 18.597 18.501 18.312 18.779C18.036 19.064 17.65 19.241 17.223 19.241C17.215 19.241 17.208 19.241 17.2 19.241H17.201H16.119V22.515C16.119 23.335 15.454 24.001 14.633 24.001C13.812 24.001 13.147 23.336 13.147 22.515V19.241H11.157V22.515V22.523C11.157 23.339 10.495 24.001 9.67899 24.001C9.67599 24.001 9.67299 24.001 9.67099 24.001C9.66499 24.001 9.65699 24.001 9.64999 24.001C9.24999 24.001 8.88899 23.835 8.63099 23.568C8.36399 23.307 8.19799 22.944 8.19799 22.542C8.19799 22.533 8.19799 22.523 8.19799 22.514L8.18399 19.241H7.11799C7.11499 19.241 7.11099 19.241 7.10799 19.241C6.23799 19.241 5.53199 18.535 5.53199 17.665C5.53199 17.661 5.53199 17.658 5.53199 17.654V17.655V8.04901L18.774 8.04801ZM15.428 2.20801C16.445 2.72801 17.278 3.48001 17.88 4.39801L17.895 4.42201C18.474 5.28801 18.818 6.35401 18.818 7.49901V7.53101V7.52901H5.47599C5.47599 7.52001 5.47599 7.50901 5.47599 7.49801C5.47599 6.35201 5.82099 5.28701 6.41199 4.40001L6.39899 4.42001C7.01799 3.47601 7.85599 2.72401 8.84299 2.22301L8.87899 2.20601L7.85499 0.316009C7.82999 0.284009 7.81499 0.244009 7.81499 0.200009C7.81499 0.124009 7.85999 0.0580093 7.92499 0.0280093C7.95499 0.00900928 7.99299 -0.00299072 8.03299 -0.00299072C8.11299 -0.00299072 8.18299 0.0450093 8.21499 0.113009L8.21599 0.114009L9.25599 2.01801C10.11 1.63501 11.106 1.41201 12.155 1.41201C13.204 1.41201 14.2 1.63501 15.1 2.03601L15.054 2.01801L16.094 0.114009C16.126 0.0440093 16.196 -0.00299072 16.276 -0.00299072C16.316 -0.00299072 16.352 0.00900928 16.384 0.0280093C16.45 0.0580093 16.495 0.124009 16.495 0.201009C16.495 0.245009 16.48 0.285009 16.455 0.317009L15.428 2.20801ZM22.308 9.24801V15.45V15.458C22.308 16.274 21.646 16.936 20.83 16.936C20.827 16.936 20.824 16.936 20.822 16.936C20.816 16.936 20.808 16.936 20.801 16.936C20.401 16.936 20.04 16.77 19.782 16.503C19.515 16.242 19.349 15.879 19.349 15.477C19.349 15.468 19.349 15.458 19.349 15.449V9.24801C19.349 9.23901 19.349 9.22901 19.349 9.21901C19.349 8.82001 19.515 8.45901 19.782 8.20301C20.041 7.94001 20.401 7.77701 20.799 7.77701H20.823H20.85C21.25 7.77701 21.613 7.94001 21.875 8.20301C22.142 8.46001 22.308 8.82001 22.308 9.22001V9.24701V9.24801Z" fill="#241E28"/>
  </g>
  <defs>
    <clipPath id="clip0_16_117">
      <rect width="24" height="24" fill="white"/>
    </clipPath>
  </defs>
</svg>
