<svg xmlns="http://www.w3.org/2000/svg" viewBox="0 0 24 24" fill="none">
  <path d="M15.3082 4.34253C16.0432 3.48753 16.4902 2.36703 16.4902 1.14228C16.4902 1.00503 16.485 0.869279 16.4737 0.735779L16.4752 0.753029C15.1485 0.888029 13.9897 1.51728 13.17 2.45103L13.1647 2.45703C12.417 3.28728 11.9595 4.39128 11.9595 5.60253C11.9595 5.72028 11.964 5.83803 11.9722 5.95353L11.9715 5.93778C11.9842 5.93778 11.9992 5.93778 12.015 5.93778C13.3455 5.93778 14.532 5.31828 15.3007 4.35153L15.3075 4.34328L15.3082 4.34253ZM12.1425 7.21653C11.2537 7.21653 9.87899 6.20628 8.43074 6.24153C6.43499 6.29628 4.71149 7.41003 3.79574 9.03903L3.78149 9.06678C1.79699 12.5108 3.26999 17.598 5.20499 20.3978C6.15449 21.7605 7.27424 23.2935 8.75924 23.2463C10.1835 23.1855 10.7182 22.3215 12.447 22.3215C14.163 22.3215 14.6497 23.2463 16.1587 23.2103C17.6932 23.1863 18.6667 21.8235 19.6042 20.4473C20.2402 19.527 20.7697 18.4665 21.1372 17.3333L21.1612 17.247C19.3762 16.4723 18.1492 14.7278 18.1432 12.696C18.1605 10.8915 19.1212 9.31503 20.5552 8.43528L20.577 8.42253C19.647 7.11678 18.1612 6.25953 16.4722 6.19578H16.4625C14.5882 6.04953 13.0185 7.21728 12.1417 7.21728L12.1425 7.21653Z" fill="#241E28"/>
</svg>
