<svg xmlns="http://www.w3.org/2000/svg" viewBox="0 0 22 22" fill="none">
  <g clip-path="url(#clip0_16_43)">
    <path d="M12.9944 22H16.3639C19.4576 22 22 19.4576 22 16.3639V5.63613C22 2.54238 19.4576 0 16.3639 0H12.9264C12.8583 0 12.7868 0.0680625 12.7868 0.136125V21.8639C12.7868 21.9319 12.8549 22 12.9944 22ZM17.1875 9.90069C18.4264 9.90069 19.3861 10.9319 19.3861 12.0993C19.3861 13.3382 18.3549 14.2979 17.1875 14.2979C15.9486 14.2979 14.9889 13.3382 14.9889 12.0993C14.9174 10.8639 15.9486 9.90069 17.1875 9.90069ZM10.4486 0H5.63613C2.54238 0 0 2.54238 0 5.63613V16.3639C0 19.4576 2.54238 22 5.63613 22H10.4486C10.5167 22 10.5882 21.9319 10.5882 21.8639V0.136125C10.5882 0.0680625 10.5201 0 10.4486 0ZM8.86944 20.2132H5.63613C3.50556 20.2132 1.78681 18.4944 1.78681 16.3639V5.63613C1.78681 3.50556 3.50556 1.78681 5.63613 1.78681H8.80138L8.86944 20.2132ZM3.4375 6.59931C3.4375 7.76669 4.33262 8.66181 5.5 8.66181C6.66738 8.66181 7.5625 7.76669 7.5625 6.59931C7.5625 5.43194 6.66738 4.53681 5.5 4.53681C4.33262 4.53681 3.4375 5.43194 3.4375 6.59931Z" fill="#241E28"/>
  </g>
  <defs>
    <clipPath id="clip0_16_43">
      <rect width="22" height="22" fill="white"/>
    </clipPath>
  </defs>
</svg>
