<svg xmlns="http://www.w3.org/2000/svg" viewBox="0 0 28 28" fill="none">
  <path d="M2.85424 21.217C0.776988 20.6211 0.433113 19.3935 1.37549 18.6804C2.05449 18.2341 2.83499 17.8456 3.66099 17.5534L3.73711 17.5297L9.87699 15.3282V17.857L5.47574 19.4661C4.70486 19.7627 4.57361 20.1574 5.21411 20.3691C5.53349 20.4505 5.89924 20.4977 6.27636 20.4977C6.81449 20.4977 7.32986 20.4024 7.80674 20.2282L7.77611 20.2379L9.89536 19.4661V21.7341C9.76411 21.7665 9.61536 21.7822 9.46924 21.8137C8.79111 21.9327 8.01061 22.001 7.21436 22.001C5.65861 22.001 4.16411 21.7402 2.77111 21.2607L2.86736 21.2896L2.85424 21.217ZM15.7929 21.476L22.6774 18.9884C23.4587 18.7066 23.5804 18.305 22.946 18.0941C22.6284 18.0162 22.2644 17.9716 21.889 17.9716C21.3447 17.9716 20.8215 18.0661 20.3367 18.2385L20.3691 18.2289L15.771 19.8686V17.2585L16.0335 17.1657C16.9522 16.8604 18.032 16.6232 19.1459 16.4999L19.2185 16.4929C19.628 16.4491 20.1022 16.4246 20.5826 16.4246C22.225 16.4246 23.8 16.7142 25.2577 17.2462L25.1632 17.2156C27.1836 17.8727 27.3936 18.8247 26.8861 19.481C26.397 19.9684 25.8055 20.3542 25.1466 20.6027L25.1125 20.6141L15.7701 24.0117V21.5014L15.7929 21.476ZM10.7021 3.71698V22.9031L14.9826 24.2821V8.19085C14.9826 7.4366 15.3151 6.9326 15.8506 7.1076C16.5462 7.30448 16.6819 7.99748 16.6819 8.75348V15.1777C19.3506 16.4824 21.4515 15.1751 21.4515 11.7311C21.4515 8.19173 20.2204 6.61935 16.5987 5.35935C15.0369 4.79235 13.0637 4.2271 11.0451 3.77998L10.7047 3.71698H10.7021Z" fill="#241E28"/>
</svg>
