<svg xmlns="http://www.w3.org/2000/svg" viewBox="0 0 24 24" fill="none">
  <g clip-path="url(#clip0_16_47)">
    <path d="M13.5765 9.09674C13.5765 7.92374 14.5275 6.97274 15.6997 6.97274C16.872 6.97274 17.823 7.92374 17.823 9.09599C17.823 10.269 16.8727 11.2192 15.6997 11.2192C15.6997 11.2192 15.6997 11.2192 15.699 11.2192C14.5267 11.2192 13.5765 10.269 13.5765 9.09674C13.5765 9.09674 13.5757 9.09674 13.5757 9.09599L13.5765 9.09674ZM18.5182 9.10124C18.5182 7.54049 17.253 6.27524 15.6922 6.27524C14.1315 6.27524 12.8662 7.54049 12.8662 9.10124C12.8662 10.662 14.1315 11.9272 15.6922 11.9272C17.2522 11.925 18.516 10.6605 18.5182 9.10124ZM7.82024 17.82L6.43949 17.2485C6.83249 18.057 7.64774 18.6045 8.59049 18.6045C9.57824 18.6045 10.4265 18.0037 10.788 17.1472L10.794 17.1315C10.9102 16.86 10.9785 16.5435 10.9785 16.212C10.9785 14.8942 9.91049 13.8262 8.59274 13.8262C8.28899 13.8262 7.99874 13.8832 7.73174 13.986L7.74824 13.9807L9.17549 14.571C9.81449 14.844 10.2547 15.468 10.2547 16.194C10.2547 17.166 9.46649 17.9542 8.49449 17.9542C8.25149 17.9542 8.02049 17.9047 7.80974 17.8162L7.82099 17.8207L7.82024 17.82ZM11.9805 0.752991C6.08774 0.753741 1.25474 5.28749 0.776987 11.0565L0.773987 11.097L6.80249 13.5885C7.30349 13.242 7.92374 13.0357 8.59274 13.0357C8.59349 13.0357 8.59424 13.0357 8.59424 13.0357C8.65349 13.0357 8.71124 13.0395 8.77049 13.0417L11.4517 9.15974V9.10424C11.454 6.76424 13.3515 4.86824 15.6915 4.86824C18.033 4.86824 19.9312 6.76649 19.9312 9.10799C19.9312 11.4495 18.033 13.3477 15.6915 13.3477H15.5932L11.7727 16.0762C11.7727 16.125 11.7765 16.1745 11.7765 16.2255C11.7765 16.2262 11.7765 16.227 11.7765 16.2277C11.7765 17.9842 10.3522 19.4085 8.59574 19.4085C7.06049 19.4085 5.77874 18.3202 5.48099 16.8735L5.47724 16.8532L1.16099 15.066C2.54174 19.8247 6.86174 23.2447 11.9797 23.2447C18.1905 23.2447 23.2252 18.21 23.2252 11.9992C23.2252 5.78849 18.1905 0.753741 11.9797 0.753741L11.9805 0.752991Z" fill="#241E28"/>
  </g>
  <defs>
    <clipPath id="clip0_16_47">
      <rect width="24" height="24" fill="white"/>
    </clipPath>
  </defs>
</svg>
