<svg xmlns="http://www.w3.org/2000/svg" viewBox="0 0 24 24" fill="none">
  <g clip-path="url(#clip0_16_49)">
    <path d="M12 4.06874C10.584 3.22499 8.92049 2.62724 7.14524 2.38199L7.07623 2.37449C7.02373 2.37074 6.96224 2.36849 6.90074 2.36849C6.44099 2.36849 6.00974 2.48849 5.63548 2.69924L5.64823 2.69249C7.41599 1.46699 9.60598 0.734985 11.9677 0.734985C11.9737 0.734985 11.9797 0.734985 11.9857 0.734985H12C12.0037 0.734985 12.0082 0.734985 12.0135 0.734985C14.3812 0.734985 16.578 1.46699 18.3892 2.71649L18.3517 2.69174C17.9932 2.48774 17.5635 2.36699 17.1052 2.36699C17.0415 2.36699 16.9785 2.36924 16.9162 2.37374L16.9245 2.37299C15.0802 2.62499 13.4167 3.22048 11.9385 4.09574L12 4.06199V4.06874ZM4.16548 3.95099C4.13474 3.96149 4.10773 3.97499 4.08298 3.99149L4.08449 3.99074C2.01599 6.03299 0.734985 8.86873 0.734985 12.0037C0.734985 14.6917 1.67699 17.16 3.24974 19.0965L3.23324 19.0755C1.91774 16.6297 6.59324 9.73423 8.94073 6.95623C6.29323 4.31549 4.98299 3.90973 4.42949 3.90973C4.42199 3.90973 4.41374 3.90898 4.40549 3.90898C4.31924 3.90898 4.23673 3.92474 4.16098 3.95398L4.16548 3.95249V3.95099ZM15.0622 6.95623C17.409 9.73573 22.0875 16.6372 20.766 19.077C22.3222 17.1615 23.265 14.6932 23.265 12.0045C23.265 8.86874 21.9832 6.03298 19.9147 3.99149L19.9132 3.98999C19.8915 3.97424 19.866 3.96074 19.8382 3.95099L19.836 3.95024C19.761 3.92324 19.674 3.90824 19.584 3.90824C19.5802 3.90824 19.5757 3.90824 19.572 3.90824C19.0162 3.90824 17.709 4.31624 15.0622 6.95623ZM4.58548 20.4795C6.55573 22.209 9.15524 23.265 12.0015 23.265C14.8477 23.265 17.4472 22.2097 19.4302 20.469L19.4175 20.4802C21.1792 18.6855 15.366 12.3045 12 9.76274C8.63774 12.3052 2.81998 18.6847 4.58548 20.4795Z" fill="#241E28"/>
  </g>
  <defs>
    <clipPath id="clip0_16_49">
      <rect width="24" height="24" fill="white"/>
    </clipPath>
  </defs>
</svg>
